<svg viewBox="0 0 24 24" fill="none" stroke="currentColor" stroke-width="1.3" stroke-linecap="round" stroke-linejoin="round" xmlns="http://www.w3.org/2000/svg">
    <!-- Tabler glass-cocktail base -->
    <path d="M8 21h8"/>
    <path d="M12 15v6"/>
    <path d="M5 5a7 2 0 1 0 14 0a7 2 0 1 0 -14 0"/>
    <path d="M5 5v.388c0 .432.126.853.362 1.206l5 7.509c.633.951 1.88 1.183 2.785.517a2 2 0 0 0 .491-.517l5-7.509c.236-.353.362-.774.362-1.206V5"/>
    <!-- Lime slice on right rim -->
    <circle cx="18.5" cy="4" r="1.8"/>
    <line x1="18.5" y1="2.2" x2="18.5" y2="5.8"/>
    <line x1="16.9" y1="3.1" x2="20.1" y2="4.9"/>
    <line x1="16.9" y1="4.9" x2="20.1" y2="3.1"/>
</svg>
